<svg xmlns="http://www.w3.org/2000/svg" xmlns:xlink="http://www.w3.org/1999/xlink" width="500" zoomAndPan="magnify" viewBox="0 0 375 374.999991" height="500" preserveAspectRatio="xMidYMid meet" version="1.2"><defs><clipPath id="04f4a8af19"><path d="M 18.820312 18.820312 L 356 18.820312 L 356 181.011719 L 18.820312 181.011719 Z M 18.820312 18.820312 "/></clipPath><clipPath id="110c1a672f"><path d="M 131.332031 28.558594 C 148.574219 22.679688 168.292969 18.820312 187.589844 18.820312 C 206.890625 18.820312 225.460938 22.125 242.574219 28.007812 C 242.9375 28.191406 243.300781 28.191406 243.667969 28.375 C 307.933594 51.902344 355.269531 114.03125 356.179688 181.011719 L 18.820312 181.011719 C 19.730469 113.664062 66.335938 51.535156 131.332031 28.558594 Z M 131.332031 28.558594 "/></clipPath><clipPath id="99ed5f3909"><path d="M 19 193.980469 L 356.179688 193.980469 L 356.179688 356.175781 L 19 356.175781 Z M 19 193.980469 "/></clipPath><clipPath id="504dc3cc00"><path d="M 243.664062 346.433594 C 226.421875 352.316406 206.703125 356.175781 187.40625 356.175781 C 168.105469 356.175781 149.535156 352.867188 132.421875 346.984375 C 132.058594 346.800781 131.695312 346.800781 131.328125 346.617188 C 67.0625 323.089844 19.726562 260.964844 18.816406 193.980469 L 356.179688 193.980469 C 355.265625 261.332031 308.660156 323.457031 243.664062 346.433594 Z M 243.664062 346.433594 "/></clipPath><clipPath id="d42eec48bd"><path d="M 86.335938 86.335938 L 288.835938 86.335938 L 288.835938 288.835938 L 86.335938 288.835938 Z M 86.335938 86.335938 "/></clipPath><clipPath id="c1abb3ff05"><path d="M 101.839844 101.839844 L 272.839844 101.839844 L 272.839844 272.839844 L 101.839844 272.839844 Z M 101.839844 101.839844 "/></clipPath><clipPath id="78d3da2905"><path d="M 139.765625 139 L 235.015625 139 L 235.015625 226 L 139.765625 226 Z M 139.765625 139 "/></clipPath><clipPath id="9ba40a0aed"><path d="M 177 130.179688 L 197 130.179688 L 197 150 L 177 150 Z M 177 130.179688 "/></clipPath><clipPath id="d3b55fe32e"><path d="M 174 231 L 201 231 L 201 244.929688 L 174 244.929688 Z M 174 231 "/></clipPath></defs><g id="1d0c4799bc"><g clip-rule="nonzero" clip-path="url(#04f4a8af19)"><g clip-rule="nonzero" clip-path="url(#110c1a672f)"><path style=" stroke:none;fill-rule:nonzero;fill:#ca3c25;fill-opacity:1;" d="M 18.820312 18.820312 L 355.878906 18.820312 L 355.878906 181.011719 L 18.820312 181.011719 Z M 18.820312 18.820312 "/></g></g><g clip-rule="nonzero" clip-path="url(#99ed5f3909)"><g clip-rule="nonzero" clip-path="url(#504dc3cc00)"><path style=" stroke:none;fill-rule:nonzero;fill:#e6aa68;fill-opacity:1;" d="M 356.179688 356.175781 L 19.117188 356.175781 L 19.117188 193.980469 L 356.179688 193.980469 Z M 356.179688 356.175781 "/></g></g><g clip-rule="nonzero" clip-path="url(#d42eec48bd)"><path style=" stroke:none;fill-rule:nonzero;fill:#ffffff;fill-opacity:1;" d="M 288.660156 187.496094 C 288.660156 189.152344 288.617188 190.804688 288.535156 192.460938 C 288.457031 194.113281 288.332031 195.765625 288.171875 197.410156 C 288.007812 199.058594 287.804688 200.703125 287.5625 202.339844 C 287.320312 203.976562 287.039062 205.609375 286.714844 207.230469 C 286.390625 208.855469 286.027344 210.46875 285.625 212.078125 C 285.222656 213.683594 284.78125 215.277344 284.300781 216.863281 C 283.820312 218.445312 283.300781 220.019531 282.746094 221.578125 C 282.1875 223.136719 281.589844 224.679688 280.957031 226.210938 C 280.324219 227.738281 279.652344 229.25 278.945312 230.75 C 278.238281 232.246094 277.492188 233.722656 276.714844 235.183594 C 275.933594 236.644531 275.117188 238.082031 274.265625 239.503906 C 273.414062 240.925781 272.527344 242.320312 271.609375 243.699219 C 270.691406 245.074219 269.738281 246.429688 268.75 247.757812 C 267.765625 249.089844 266.746094 250.394531 265.695312 251.671875 C 264.644531 252.953125 263.5625 254.207031 262.453125 255.433594 C 261.339844 256.660156 260.199219 257.859375 259.027344 259.027344 C 257.859375 260.199219 256.660156 261.339844 255.433594 262.453125 C 254.207031 263.5625 252.953125 264.644531 251.671875 265.695312 C 250.394531 266.746094 249.089844 267.765625 247.757812 268.75 C 246.429688 269.738281 245.074219 270.691406 243.699219 271.609375 C 242.320312 272.527344 240.925781 273.414062 239.503906 274.265625 C 238.082031 275.117188 236.644531 275.933594 235.183594 276.714844 C 233.722656 277.492188 232.246094 278.238281 230.75 278.945312 C 229.25 279.652344 227.738281 280.324219 226.210938 280.957031 C 224.679688 281.589844 223.136719 282.1875 221.578125 282.746094 C 220.019531 283.300781 218.445312 283.820312 216.863281 284.300781 C 215.277344 284.78125 213.683594 285.222656 212.078125 285.625 C 210.46875 286.027344 208.855469 286.390625 207.230469 286.714844 C 205.609375 287.039062 203.976562 287.320312 202.339844 287.5625 C 200.703125 287.804688 199.058594 288.007812 197.410156 288.171875 C 195.765625 288.332031 194.113281 288.457031 192.460938 288.535156 C 190.804688 288.617188 189.152344 288.660156 187.496094 288.660156 C 185.839844 288.660156 184.1875 288.617188 182.53125 288.535156 C 180.878906 288.457031 179.226562 288.332031 177.582031 288.171875 C 175.933594 288.007812 174.289062 287.804688 172.652344 287.5625 C 171.015625 287.320312 169.382812 287.039062 167.761719 286.714844 C 166.136719 286.390625 164.523438 286.027344 162.914062 285.625 C 161.308594 285.222656 159.714844 284.78125 158.128906 284.300781 C 156.546875 283.820312 154.972656 283.300781 153.414062 282.746094 C 151.855469 282.1875 150.3125 281.589844 148.78125 280.957031 C 147.253906 280.324219 145.742188 279.652344 144.242188 278.945312 C 142.746094 278.238281 141.269531 277.492188 139.808594 276.714844 C 138.347656 275.933594 136.910156 275.117188 135.488281 274.265625 C 134.066406 273.414062 132.671875 272.527344 131.292969 271.609375 C 129.917969 270.691406 128.5625 269.738281 127.234375 268.75 C 125.902344 267.765625 124.597656 266.746094 123.320312 265.695312 C 122.039062 264.644531 120.785156 263.5625 119.558594 262.453125 C 118.332031 261.339844 117.132812 260.199219 115.964844 259.027344 C 114.792969 257.859375 113.652344 256.660156 112.539062 255.433594 C 111.429688 254.207031 110.347656 252.953125 109.296875 251.671875 C 108.246094 250.394531 107.226562 249.089844 106.242188 247.757812 C 105.253906 246.429688 104.300781 245.074219 103.382812 243.699219 C 102.464844 242.320312 101.578125 240.925781 100.726562 239.503906 C 99.875 238.082031 99.058594 236.644531 98.277344 235.183594 C 97.5 233.722656 96.753906 232.246094 96.046875 230.75 C 95.339844 229.25 94.667969 227.738281 94.035156 226.210938 C 93.402344 224.679688 92.804688 223.136719 92.246094 221.578125 C 91.691406 220.019531 91.171875 218.445312 90.691406 216.863281 C 90.210938 215.277344 89.769531 213.683594 89.367188 212.078125 C 88.964844 210.46875 88.601562 208.855469 88.277344 207.230469 C 87.953125 205.609375 87.671875 203.976562 87.429688 202.339844 C 87.1875 200.703125 86.984375 199.058594 86.820312 197.410156 C 86.660156 195.765625 86.539062 194.113281 86.457031 192.460938 C 86.375 190.804688 86.335938 189.152344 86.335938 187.496094 C 86.335938 185.839844 86.375 184.1875 86.457031 182.53125 C 86.539062 180.878906 86.660156 179.226562 86.820312 177.582031 C 86.984375 175.933594 87.1875 174.289062 87.429688 172.652344 C 87.671875 171.015625 87.953125 169.382812 88.277344 167.761719 C 88.601562 166.136719 88.964844 164.523438 89.367188 162.914062 C 89.769531 161.308594 90.210938 159.714844 90.691406 158.128906 C 91.171875 156.546875 91.691406 154.972656 92.246094 153.414062 C 92.804688 151.855469 93.402344 150.3125 94.035156 148.78125 C 94.667969 147.253906 95.339844 145.742188 96.046875 144.242188 C 96.753906 142.746094 97.5 141.269531 98.277344 139.808594 C 99.058594 138.347656 99.875 136.910156 100.726562 135.488281 C 101.578125 134.066406 102.464844 132.671875 103.382812 131.292969 C 104.300781 129.917969 105.253906 128.5625 106.242188 127.234375 C 107.226562 125.902344 108.246094 124.597656 109.296875 123.320312 C 110.347656 122.039062 111.429688 120.785156 112.539062 119.558594 C 113.652344 118.332031 114.792969 117.132812 115.964844 115.964844 C 117.132812 114.792969 118.332031 113.652344 119.558594 112.539062 C 120.785156 111.429688 122.039062 110.347656 123.320312 109.296875 C 124.597656 108.246094 125.902344 107.226562 127.234375 106.242188 C 128.5625 105.253906 129.917969 104.300781 131.292969 103.382812 C 132.671875 102.464844 134.066406 101.578125 135.488281 100.726562 C 136.910156 99.875 138.347656 99.058594 139.808594 98.277344 C 141.269531 97.5 142.746094 96.753906 144.242188 96.046875 C 145.742188 95.339844 147.253906 94.667969 148.78125 94.035156 C 150.3125 93.402344 151.855469 92.804688 153.414062 92.246094 C 154.972656 91.691406 156.546875 91.171875 158.128906 90.691406 C 159.714844 90.210938 161.308594 89.769531 162.914062 89.367188 C 164.523438 88.964844 166.136719 88.601562 167.761719 88.277344 C 169.382812 87.953125 171.015625 87.671875 172.652344 87.429688 C 174.289062 87.1875 175.933594 86.984375 177.582031 86.820312 C 179.226562 86.660156 180.878906 86.535156 182.53125 86.457031 C 184.1875 86.375 185.839844 86.335938 187.496094 86.335938 C 189.152344 86.335938 190.804688 86.375 192.460938 86.457031 C 194.113281 86.535156 195.765625 86.660156 197.410156 86.820312 C 199.058594 86.984375 200.703125 87.1875 202.339844 87.429688 C 203.976562 87.671875 205.609375 87.953125 207.230469 88.277344 C 208.855469 88.601562 210.46875 88.964844 212.078125 89.367188 C 213.683594 89.769531 215.277344 90.210938 216.863281 90.691406 C 218.445312 91.171875 220.019531 91.691406 221.578125 92.246094 C 223.136719 92.804688 224.679688 93.402344 226.210938 94.035156 C 227.738281 94.667969 229.25 95.339844 230.75 96.046875 C 232.246094 96.753906 233.722656 97.5 235.183594 98.277344 C 236.644531 99.058594 238.082031 99.875 239.503906 100.726562 C 240.925781 101.578125 242.320312 102.464844 243.699219 103.382812 C 245.074219 104.300781 246.429688 105.253906 247.757812 106.242188 C 249.089844 107.226562 250.394531 108.246094 251.671875 109.296875 C 252.953125 110.347656 254.207031 111.429688 255.433594 112.539062 C 256.660156 113.652344 257.859375 114.792969 259.027344 115.964844 C 260.199219 117.132812 261.339844 118.332031 262.453125 119.558594 C 263.5625 120.785156 264.644531 122.039062 265.695312 123.320312 C 266.746094 124.597656 267.765625 125.902344 268.75 127.234375 C 269.738281 128.5625 270.691406 129.917969 271.609375 131.292969 C 272.527344 132.671875 273.414062 134.066406 274.265625 135.488281 C 275.117188 136.910156 275.933594 138.347656 276.714844 139.808594 C 277.492188 141.269531 278.238281 142.746094 278.945312 144.242188 C 279.652344 145.742188 280.324219 147.253906 280.957031 148.78125 C 281.589844 150.3125 282.1875 151.855469 282.746094 153.414062 C 283.300781 154.972656 283.820312 156.546875 284.300781 158.128906 C 284.78125 159.714844 285.222656 161.308594 285.625 162.914062 C 286.027344 164.523438 286.390625 166.136719 286.714844 167.761719 C 287.039062 169.382812 287.320312 171.015625 287.5625 172.652344 C 287.804688 174.289062 288.007812 175.933594 288.171875 177.582031 C 288.332031 179.226562 288.457031 180.878906 288.535156 182.53125 C 288.617188 184.1875 288.660156 185.839844 288.660156 187.496094 Z M 288.660156 187.496094 "/></g><g clip-rule="nonzero" clip-path="url(#c1abb3ff05)"><path style=" stroke:none;fill-rule:nonzero;fill:#343234;fill-opacity:1;" d="M 272.839844 187.339844 C 272.839844 188.742188 272.808594 190.140625 272.738281 191.535156 C 272.667969 192.933594 272.566406 194.328125 272.429688 195.722656 C 272.292969 197.113281 272.121094 198.503906 271.914062 199.886719 C 271.710938 201.269531 271.472656 202.648438 271.199219 204.019531 C 270.925781 205.394531 270.617188 206.757812 270.277344 208.117188 C 269.9375 209.472656 269.566406 210.820312 269.160156 212.160156 C 268.753906 213.5 268.316406 214.828125 267.84375 216.144531 C 267.371094 217.460938 266.867188 218.769531 266.332031 220.058594 C 265.796875 221.351562 265.230469 222.632812 264.632812 223.898438 C 264.035156 225.160156 263.40625 226.410156 262.746094 227.644531 C 262.085938 228.878906 261.394531 230.097656 260.675781 231.296875 C 259.957031 232.496094 259.210938 233.679688 258.433594 234.84375 C 257.652344 236.003906 256.847656 237.148438 256.015625 238.273438 C 255.183594 239.398438 254.320312 240.5 253.433594 241.582031 C 252.546875 242.664062 251.632812 243.722656 250.691406 244.757812 C 249.753906 245.796875 248.789062 246.808594 247.796875 247.796875 C 246.808594 248.789062 245.796875 249.753906 244.757812 250.691406 C 243.722656 251.632812 242.664062 252.546875 241.582031 253.433594 C 240.5 254.320312 239.398438 255.183594 238.273438 256.015625 C 237.148438 256.847656 236.003906 257.652344 234.84375 258.433594 C 233.679688 259.210938 232.496094 259.957031 231.296875 260.675781 C 230.097656 261.394531 228.878906 262.085938 227.644531 262.746094 C 226.410156 263.40625 225.160156 264.035156 223.898438 264.632812 C 222.632812 265.230469 221.351562 265.796875 220.058594 266.332031 C 218.769531 266.867188 217.460938 267.371094 216.144531 267.84375 C 214.828125 268.3125 213.5 268.753906 212.160156 269.160156 C 210.820312 269.566406 209.472656 269.9375 208.117188 270.277344 C 206.757812 270.617188 205.394531 270.925781 204.019531 271.199219 C 202.648438 271.472656 201.269531 271.710938 199.886719 271.914062 C 198.503906 272.121094 197.113281 272.292969 195.722656 272.429688 C 194.328125 272.566406 192.933594 272.667969 191.535156 272.738281 C 190.140625 272.808594 188.742188 272.839844 187.339844 272.839844 C 185.941406 272.839844 184.542969 272.808594 183.144531 272.738281 C 181.75 272.667969 180.351562 272.566406 178.960938 272.429688 C 177.566406 272.292969 176.179688 272.121094 174.796875 271.914062 C 173.410156 271.710938 172.035156 271.472656 170.660156 271.199219 C 169.289062 270.925781 167.921875 270.617188 166.566406 270.277344 C 165.207031 269.9375 163.859375 269.566406 162.523438 269.160156 C 161.183594 268.753906 159.855469 268.316406 158.535156 267.84375 C 157.21875 267.371094 155.914062 266.867188 154.621094 266.332031 C 153.328125 265.796875 152.050781 265.230469 150.785156 264.632812 C 149.519531 264.035156 148.269531 263.40625 147.035156 262.746094 C 145.800781 262.085938 144.585938 261.394531 143.386719 260.675781 C 142.183594 259.957031 141.003906 259.210938 139.839844 258.433594 C 138.675781 257.652344 137.53125 256.847656 136.410156 256.015625 C 135.285156 255.183594 134.183594 254.320312 133.101562 253.433594 C 132.019531 252.546875 130.960938 251.632812 129.921875 250.691406 C 128.886719 249.753906 127.871094 248.789062 126.882812 247.796875 C 125.894531 246.808594 124.929688 245.796875 123.988281 244.757812 C 123.050781 243.722656 122.136719 242.664062 121.25 241.582031 C 120.359375 240.5 119.5 239.398438 118.667969 238.273438 C 117.832031 237.148438 117.027344 236.003906 116.25 234.84375 C 115.472656 233.679688 114.726562 232.496094 114.003906 231.296875 C 113.285156 230.097656 112.597656 228.878906 111.9375 227.644531 C 111.277344 226.410156 110.648438 225.160156 110.050781 223.898438 C 109.453125 222.632812 108.886719 221.351562 108.347656 220.058594 C 107.8125 218.769531 107.308594 217.460938 106.839844 216.144531 C 106.367188 214.828125 105.929688 213.5 105.523438 212.160156 C 105.117188 210.820312 104.742188 209.472656 104.402344 208.117188 C 104.0625 206.757812 103.757812 205.394531 103.484375 204.019531 C 103.210938 202.648438 102.972656 201.269531 102.765625 199.886719 C 102.5625 198.503906 102.390625 197.113281 102.253906 195.722656 C 102.117188 194.328125 102.011719 192.933594 101.945312 191.535156 C 101.875 190.140625 101.839844 188.742188 101.839844 187.339844 C 101.839844 185.941406 101.875 184.542969 101.945312 183.144531 C 102.011719 181.75 102.117188 180.351562 102.253906 178.960938 C 102.390625 177.566406 102.5625 176.179688 102.765625 174.796875 C 102.972656 173.410156 103.210938 172.035156 103.484375 170.660156 C 103.757812 169.289062 104.0625 167.921875 104.402344 166.566406 C 104.742188 165.207031 105.117188 163.859375 105.523438 162.523438 C 105.929688 161.183594 106.367188 159.855469 106.839844 158.535156 C 107.308594 157.21875 107.8125 155.914062 108.347656 154.621094 C 108.886719 153.328125 109.453125 152.050781 110.050781 150.785156 C 110.648438 149.519531 111.277344 148.269531 111.9375 147.035156 C 112.597656 145.800781 113.285156 144.585938 114.003906 143.386719 C 114.726562 142.183594 115.472656 141.003906 116.25 139.839844 C 117.027344 138.675781 117.832031 137.53125 118.667969 136.410156 C 119.5 135.285156 120.359375 134.183594 121.25 133.101562 C 122.136719 132.019531 123.050781 130.960938 123.988281 129.921875 C 124.929688 128.886719 125.894531 127.871094 126.882812 126.882812 C 127.871094 125.894531 128.886719 124.929688 129.921875 123.988281 C 130.960938 123.050781 132.019531 122.136719 133.101562 121.25 C 134.183594 120.359375 135.285156 119.5 136.410156 118.667969 C 137.53125 117.832031 138.675781 117.027344 139.839844 116.25 C 141.003906 115.472656 142.183594 114.726562 143.386719 114.003906 C 144.585938 113.285156 145.800781 112.597656 147.035156 111.9375 C 148.269531 111.277344 149.519531 110.648438 150.785156 110.050781 C 152.050781 109.453125 153.328125 108.886719 154.621094 108.347656 C 155.914062 107.8125 157.21875 107.308594 158.535156 106.839844 C 159.855469 106.367188 161.183594 105.929688 162.523438 105.523438 C 163.859375 105.117188 165.207031 104.742188 166.566406 104.402344 C 167.921875 104.0625 169.289062 103.757812 170.660156 103.484375 C 172.035156 103.210938 173.410156 102.972656 174.796875 102.765625 C 176.179688 102.5625 177.566406 102.390625 178.960938 102.253906 C 180.351562 102.117188 181.75 102.011719 183.144531 101.945312 C 184.542969 101.875 185.941406 101.839844 187.339844 101.839844 C 188.742188 101.839844 190.140625 101.875 191.535156 101.945312 C 192.933594 102.011719 194.328125 102.117188 195.722656 102.253906 C 197.113281 102.390625 198.503906 102.5625 199.886719 102.765625 C 201.269531 102.972656 202.648438 103.210938 204.019531 103.484375 C 205.394531 103.757812 206.757812 104.0625 208.117188 104.402344 C 209.472656 104.742188 210.820312 105.117188 212.160156 105.523438 C 213.5 105.929688 214.828125 106.367188 216.144531 106.839844 C 217.460938 107.308594 218.769531 107.8125 220.058594 108.347656 C 221.351562 108.886719 222.632812 109.453125 223.898438 110.050781 C 225.160156 110.648438 226.410156 111.277344 227.644531 111.9375 C 228.878906 112.597656 230.097656 113.285156 231.296875 114.003906 C 232.496094 114.726562 233.679688 115.472656 234.84375 116.25 C 236.003906 117.027344 237.148438 117.832031 238.273438 118.667969 C 239.398438 119.5 240.5 120.359375 241.582031 121.25 C 242.664062 122.136719 243.722656 123.050781 244.757812 123.988281 C 245.796875 124.929688 246.808594 125.894531 247.796875 126.882812 C 248.789062 127.871094 249.753906 128.886719 250.691406 129.921875 C 251.632812 130.960938 252.546875 132.019531 253.433594 133.101562 C 254.320312 134.183594 255.183594 135.285156 256.015625 136.410156 C 256.847656 137.53125 257.652344 138.675781 258.433594 139.839844 C 259.210938 141.003906 259.957031 142.183594 260.675781 143.386719 C 261.394531 144.585938 262.085938 145.800781 262.746094 147.035156 C 263.40625 148.269531 264.035156 149.519531 264.632812 150.785156 C 265.230469 152.050781 265.796875 153.328125 266.332031 154.621094 C 266.867188 155.914062 267.371094 157.21875 267.84375 158.535156 C 268.316406 159.855469 268.753906 161.183594 269.160156 162.523438 C 269.566406 163.859375 269.9375 165.207031 270.277344 166.566406 C 270.617188 167.921875 270.925781 169.289062 271.199219 170.660156 C 271.472656 172.035156 271.710938 173.410156 271.914062 174.796875 C 272.121094 176.179688 272.292969 177.566406 272.429688 178.960938 C 272.566406 180.351562 272.667969 181.75 272.738281 183.144531 C 272.808594 184.542969 272.839844 185.941406 272.839844 187.339844 Z M 272.839844 187.339844 "/></g><g clip-rule="nonzero" clip-path="url(#78d3da2905)"><path style=" stroke:none;fill-rule:nonzero;fill:#fcffff;fill-opacity:1;" d="M 219.140625 171.492188 C 219.140625 206.417969 235.015625 203.242188 235.015625 219.117188 C 235.015625 219.117188 235.015625 225.46875 228.667969 225.46875 L 146.117188 225.46875 C 139.765625 225.46875 139.765625 219.117188 139.765625 219.117188 C 139.765625 203.242188 155.640625 206.417969 155.640625 171.492188 C 155.640625 153.960938 169.855469 139.742188 187.390625 139.742188 C 204.925781 139.742188 219.140625 153.960938 219.140625 171.492188 Z M 219.140625 171.492188 "/></g><g clip-rule="nonzero" clip-path="url(#9ba40a0aed)"><path style=" stroke:none;fill-rule:nonzero;fill:#fcffff;fill-opacity:1;" d="M 196.917969 139.742188 C 196.917969 140.367188 196.855469 140.988281 196.734375 141.601562 C 196.613281 142.214844 196.429688 142.808594 196.191406 143.386719 C 195.953125 143.964844 195.660156 144.515625 195.3125 145.035156 C 194.964844 145.554688 194.570312 146.035156 194.125 146.476562 C 193.683594 146.921875 193.203125 147.316406 192.683594 147.664062 C 192.164062 148.011719 191.613281 148.304688 191.035156 148.542969 C 190.457031 148.78125 189.863281 148.964844 189.25 149.085938 C 188.636719 149.207031 188.015625 149.269531 187.390625 149.269531 C 186.765625 149.269531 186.148438 149.207031 185.535156 149.085938 C 184.921875 148.964844 184.324219 148.78125 183.746094 148.542969 C 183.167969 148.304688 182.621094 148.011719 182.101562 147.664062 C 181.578125 147.316406 181.097656 146.921875 180.65625 146.476562 C 180.214844 146.035156 179.820312 145.554688 179.472656 145.035156 C 179.125 144.515625 178.832031 143.964844 178.589844 143.386719 C 178.351562 142.808594 178.171875 142.214844 178.050781 141.601562 C 177.925781 140.988281 177.867188 140.367188 177.867188 139.742188 C 177.867188 139.117188 177.925781 138.5 178.050781 137.886719 C 178.171875 137.273438 178.351562 136.675781 178.589844 136.097656 C 178.832031 135.519531 179.125 134.972656 179.472656 134.453125 C 179.820312 133.929688 180.214844 133.449219 180.65625 133.007812 C 181.097656 132.566406 181.578125 132.171875 182.101562 131.824219 C 182.621094 131.476562 183.167969 131.183594 183.746094 130.941406 C 184.324219 130.703125 184.921875 130.523438 185.535156 130.402344 C 186.148438 130.277344 186.765625 130.21875 187.390625 130.21875 C 188.015625 130.21875 188.636719 130.277344 189.25 130.402344 C 189.863281 130.523438 190.457031 130.703125 191.035156 130.941406 C 191.613281 131.183594 192.164062 131.476562 192.683594 131.824219 C 193.203125 132.171875 193.683594 132.566406 194.125 133.007812 C 194.570312 133.449219 194.964844 133.929688 195.3125 134.453125 C 195.660156 134.972656 195.953125 135.519531 196.191406 136.097656 C 196.429688 136.675781 196.613281 137.273438 196.734375 137.886719 C 196.855469 138.5 196.917969 139.117188 196.917969 139.742188 Z M 196.917969 139.742188 "/></g><g clip-rule="nonzero" clip-path="url(#d3b55fe32e)"><path style=" stroke:none;fill-rule:nonzero;fill:#fcffff;fill-opacity:1;" d="M 187.390625 244.519531 C 194.40625 244.519531 200.089844 238.832031 200.089844 231.816406 L 174.691406 231.816406 C 174.691406 238.832031 180.378906 244.519531 187.390625 244.519531 Z M 187.390625 244.519531 "/></g></g></svg>